<?xml version="1.0" encoding="utf-8" ?>
<svg baseProfile="full" height="512px" version="1.1" width="512px" xmlns="http://www.w3.org/2000/svg" xmlns:ev="http://www.w3.org/2001/xml-events" xmlns:xlink="http://www.w3.org/1999/xlink"><defs /><rect fill="white" height="512" width="512" x="0" y="0" /><polyline fill="none" points="326,402 360,403 361,406 350,422 340,408 330,405 339,408 346,415 349,422 359,412 361,403" stroke="#0A2A66" stroke-linecap="round" stroke-linejoin="round" stroke-width="1.5" /><polyline fill="none" points="158,422 166,412 179,407 192,409 205,416 199,408 186,404 186,402 318,402 184,402 198,408 204,415 184,407 168,410 160,417 158,422 158,429 162,435 168,436 167,430 170,426 172,437 177,439 188,439 187,432 189,427 191,428 192,437 197,439 218,433 222,426 241,429 263,429 282,426 285,433 299,438 309,438 313,427 315,429 314,439 326,439 331,436 331,428 333,426 335,428 335,436 342,434 345,428 342,416 329,408 318,407 310,409 299,416 298,414 306,407 314,405 305,407 298,413 298,416 301,416 310,409 324,407 337,412 345,423 343,432 338,436 335,435 335,427 332,426 331,435 326,439 315,439 314,427 312,427 311,435 308,438 299,438 286,433 283,426 263,429 241,429 221,426 220,430 212,436 197,439 192,436 191,427 188,427 189,437 187,439 177,439 171,434 171,426 168,427 168,435 166,437 158,429" stroke="#0A2A66" stroke-linecap="round" stroke-linejoin="round" stroke-width="1.5" /><polyline fill="none" points="177,402 165,403 165,406 177,404 166,406 166,403" stroke="#0A2A66" stroke-linecap="round" stroke-linejoin="round" stroke-width="1.5" /><polyline fill="none" points="405,398 410,405 421,407 411,405" stroke="#0A2A66" stroke-linecap="round" stroke-linejoin="round" stroke-width="1.5" /><polyline fill="none" points="431,375 433,386 430,398 424,408 410,420 391,427 374,428 356,424 367,407 380,409 399,402 405,394 407,377 413,369 421,367" stroke="#0A2A66" stroke-linecap="round" stroke-linejoin="round" stroke-width="1.5" /><polyline fill="none" points="430,373 421,367 412,369 407,377 405,393 398,402 384,408 365,408 355,425 374,428 391,427 414,418 424,409 429,401 433,386" stroke="#0A2A66" stroke-linecap="round" stroke-linejoin="round" stroke-width="1.5" /><polyline fill="none" points="401,312 407,317 407,327 404,332 401,331 403,325" stroke="#0A2A66" stroke-linecap="round" stroke-linejoin="round" stroke-width="1.5" /><polyline fill="none" points="105,312 107,313 105,319 106,332 102,330 100,325 101,316" stroke="#0A2A66" stroke-linecap="round" stroke-linejoin="round" stroke-width="1.5" /><polyline fill="none" points="104,312 101,316 100,325 102,331 107,332 105,326 107,312" stroke="#0A2A66" stroke-linecap="round" stroke-linejoin="round" stroke-width="1.5" /><polyline fill="none" points="401,311 400,315 403,320 401,332 405,332 407,317" stroke="#0A2A66" stroke-linecap="round" stroke-linejoin="round" stroke-width="1.5" /><polyline fill="none" points="146,308 194,308 196,310 195,321 159,322 159,336 192,337 192,347 190,349 159,349 159,364 194,364 197,367 197,375 195,377 146,377 144,375 144,310" stroke="#0A2A66" stroke-linecap="round" stroke-linejoin="round" stroke-width="1.5" /><polyline fill="none" points="212,309 212,377 226,377 226,335 226,376 212,376 212,310 214,308 228,309 248,342 251,342 272,308 284,308 287,311 287,375 285,377 274,377 272,375 271,334 249,368 228,335 244,362 250,368 271,334 272,376 286,377 286,309 271,308 250,342 228,309" stroke="#0A2A66" stroke-linecap="round" stroke-linejoin="round" stroke-width="1.5" /><polyline fill="none" points="145,308 144,376 196,377 197,367 194,364 159,363 160,349 192,348 192,336 160,336 159,323 161,321 196,321 196,309" stroke="#0A2A66" stroke-linecap="round" stroke-linejoin="round" stroke-width="1.5" /><polyline fill="none" points="328,307 347,307 364,317 356,327 341,320 327,322 319,329 316,336 317,352 325,362 333,365 342,365 356,358 364,366 361,371 347,378 333,379 316,373 306,363 301,353 300,337 305,324 314,314" stroke="#0A2A66" stroke-linecap="round" stroke-linejoin="round" stroke-width="1.5" /><polyline fill="none" points="328,307 313,314 303,327 300,337 300,349 303,359 315,373 327,378 342,379 356,375 365,366 357,358 342,365 330,364 319,355 315,342 319,330 326,323 341,320 357,327 364,319 364,316 347,307" stroke="#0A2A66" stroke-linecap="round" stroke-linejoin="round" stroke-width="1.5" /><polyline fill="none" points="411,298 418,303 424,319 421,336 415,344 412,341 418,331 419,317 416,308 410,301" stroke="#0A2A66" stroke-linecap="round" stroke-linejoin="round" stroke-width="1.5" /><polyline fill="none" points="95,298 98,301 91,310 89,328 97,343 96,345 90,341 84,327 86,310" stroke="#0A2A66" stroke-linecap="round" stroke-linejoin="round" stroke-width="1.5" /><polyline fill="none" points="94,298 87,307 84,327 90,342 93,345 97,345 89,328 90,313 98,302 98,298" stroke="#0A2A66" stroke-linecap="round" stroke-linejoin="round" stroke-width="1.5" /><polyline fill="none" points="413,297 409,301 416,309 419,317 418,331 412,340 412,343 416,344 423,330 424,319 422,310" stroke="#0A2A66" stroke-linecap="round" stroke-linejoin="round" stroke-width="1.5" /><polyline fill="none" points="423,284 433,295 440,314 438,338 427,355 425,352 431,343 435,330 435,314 429,297 421,287" stroke="#0A2A66" stroke-linecap="round" stroke-linejoin="round" stroke-width="1.5" /><polyline fill="none" points="85,284 87,287 76,302 72,318 74,336 77,344 86,356 84,359 77,352 70,339 67,319 73,298" stroke="#0A2A66" stroke-linecap="round" stroke-linejoin="round" stroke-width="1.5" /><polyline fill="none" points="423,284 421,288 429,298 435,314 434,334 424,354 427,355 433,349 438,338 440,314 433,294" stroke="#0A2A66" stroke-linecap="round" stroke-linejoin="round" stroke-width="1.5" /><polyline fill="none" points="85,284 73,297 67,319 71,342 77,353 84,359 86,355 74,336 72,318 75,305 87,288" stroke="#0A2A66" stroke-linecap="round" stroke-linejoin="round" stroke-width="1.5" /><polyline fill="none" points="154,287 157,284 200,284 207,290 212,290 226,271 231,271 236,275 244,292 248,294 252,292 258,278 265,271 270,271 274,274 283,290 288,290 298,281 345,281 348,283 347,286 297,286 291,293 284,295 277,289 272,278 265,276 257,292 251,298 245,298 240,293 231,276 226,276 218,290 212,295 206,294 201,289 156,289" stroke="#0A2A66" stroke-linecap="round" stroke-linejoin="round" stroke-width="1.5" /><polyline fill="none" points="154,288 200,289 205,294 212,295 218,291 224,279 230,276 240,294 244,298 252,298 257,293 266,276 272,279 277,290 284,295 292,293 298,286 349,285 345,281 294,282 287,290 284,290 274,273 264,271 260,274 252,291 248,294 244,291 236,274 232,271 225,271 211,290 200,284 154,285" stroke="#0A2A66" stroke-linecap="round" stroke-linejoin="round" stroke-width="1.5" /><polyline fill="none" points="117,263 121,258 125,267 131,273 138,276 154,276 161,274 175,262 179,247 328,247 332,261 344,272 351,275 366,276 377,272 387,258 390,263 390,388 381,398 126,398 117,388" stroke="#0A2A66" stroke-linecap="round" stroke-linejoin="round" stroke-width="1.5" /><polyline fill="none" points="118,260 117,388 119,393 126,398 381,398 389,391 390,263 387,257 376,272 366,276 351,275 336,265 331,258 329,247 178,247 175,261 160,274 154,276 138,276 125,266 122,257" stroke="#0A2A66" stroke-linecap="round" stroke-linejoin="round" stroke-width="1.5" /><polyline fill="none" points="143,233 160,233 172,244 173,254 170,260 166,262 162,256 159,256 162,266 156,271 151,271 145,263 143,263 145,270 142,272 138,271 127,260 126,252 129,244" stroke="#0A2A66" stroke-linecap="round" stroke-linejoin="round" stroke-width="1.5" /><polyline fill="none" points="346,233 353,231 363,232 371,236 378,243 381,249 381,258 375,267 364,271 364,263 362,263 357,270 351,270 345,265 348,255 345,255 341,262 336,258 334,252 335,244" stroke="#0A2A66" stroke-linecap="round" stroke-linejoin="round" stroke-width="1.5" /><polyline fill="none" points="163,234 156,232 143,233 129,243 126,256 132,268 142,272 145,271 143,267 145,264 150,271 156,271 162,267 159,259 160,256 165,262 170,261 173,247 170,240" stroke="#0A2A66" stroke-linecap="round" stroke-linejoin="round" stroke-width="1.5" /><polyline fill="none" points="342,235 337,240 334,248 336,259 339,262 342,262 347,255 348,258 345,266 350,270 358,270 363,263 363,271 371,270 377,266 381,258 381,249 378,242 372,236 358,231" stroke="#0A2A66" stroke-linecap="round" stroke-linejoin="round" stroke-width="1.5" /><polyline fill="none" points="227,205 230,203 236,210 246,209 250,205 250,199 243,192 249,187 259,188 262,192 255,199 255,205 259,209 269,210 275,203 278,205 273,212 267,215 262,215 254,210 238,215 233,213" stroke="#0A2A66" stroke-linecap="round" stroke-linejoin="round" stroke-width="1.5" /><polyline fill="none" points="227,205 232,213 238,215 246,214 252,210 259,214 267,215 274,212 278,205 274,203 268,210 258,208 255,200 261,195 262,190 256,187 244,189 244,195 250,200 250,204 244,210 237,210 228,202" stroke="#0A2A66" stroke-linecap="round" stroke-linejoin="round" stroke-width="1.5" /><polyline fill="none" points="209,170 208,176 214,177 215,171" stroke="#0A2A66" stroke-linecap="round" stroke-linejoin="round" stroke-width="1.5" /><polyline fill="none" points="296,165 304,168 309,175 309,184 300,193 291,192 284,184 285,173 290,167" stroke="#0A2A66" stroke-linecap="round" stroke-linejoin="round" stroke-width="1.5" /><polyline fill="none" points="208,165 216,168 221,175 221,183 212,193 204,193 197,186 195,179 198,171" stroke="#0A2A66" stroke-linecap="round" stroke-linejoin="round" stroke-width="1.5" /><polyline fill="none" points="291,166 284,175 285,187 293,193 303,192 309,184 308,172 301,166" stroke="#0A2A66" stroke-linecap="round" stroke-linejoin="round" stroke-width="1.5" /><polyline fill="none" points="214,166 203,166 197,172 196,184 204,193 215,192 220,186 221,175" stroke="#0A2A66" stroke-linecap="round" stroke-linejoin="round" stroke-width="1.5" /><polyline fill="none" points="245,99 237,124 229,136 216,149 184,168 168,173 151,175 168,173 184,168 203,159 217,149 229,137 237,125" stroke="#0A2A66" stroke-linecap="round" stroke-linejoin="round" stroke-width="1.5" /><polyline fill="none" points="261,98 263,110 271,129 290,150 322,168 338,173 356,175 338,173 322,168 291,150 271,128 265,116" stroke="#0A2A66" stroke-linecap="round" stroke-linejoin="round" stroke-width="1.5" /><polyline fill="none" points="336,79 340,80 343,90 344,115 341,126 328,113 312,102 325,87" stroke="#0A2A66" stroke-linecap="round" stroke-linejoin="round" stroke-width="1.5" /><polyline fill="none" points="335,79 318,93 312,100 312,103 342,126 344,115 343,90 340,79" stroke="#0A2A66" stroke-linecap="round" stroke-linejoin="round" stroke-width="1.5" /><polyline fill="none" points="171,78 182,86 196,102 181,112 166,126 164,97 167,81" stroke="#0A2A66" stroke-linecap="round" stroke-linejoin="round" stroke-width="1.5" /><polyline fill="none" points="171,78 168,79 165,89 165,126 168,126 182,112 196,103 191,94" stroke="#0A2A66" stroke-linecap="round" stroke-linejoin="round" stroke-width="1.5" /><polyline fill="none" points="162,66 170,64 182,70 217,100 247,95 272,96 291,100 319,75 336,65 344,64 349,71 353,92 351,145 357,162 359,185 334,192 333,194 337,196 353,191 359,193 358,201 355,205 334,205 334,208 352,209 354,211 348,224 330,242 177,242 161,227 153,213 155,209 171,208 171,205 152,205 148,194 152,191 172,196 171,192 148,185 150,163 157,144 155,92 158,75" stroke="#0A2A66" stroke-linecap="round" stroke-linejoin="round" stroke-width="1.5" /><polyline fill="none" points="162,65 155,92 157,144 150,163 148,186 168,191 172,195 168,196 149,191 148,194 151,205 168,204 171,206 168,209 152,210 161,228 176,242 331,242 348,225 355,210 337,209 334,206 338,204 356,205 359,193 358,191 353,191 337,196 333,194 343,189 359,186 358,167 351,145 353,92 349,71 345,64 339,64 327,69 309,82 291,100 260,95 236,96 217,100 199,82 183,70 170,64" stroke="#0A2A66" stroke-linecap="round" stroke-linejoin="round" stroke-width="1.5" /><polyline fill="none" points="160,60 155,69 151,87 150,122 152,144 145,164 143,184 119,186 120,189 142,190 145,200 143,206 121,212 121,215 145,210 155,226 144,228 131,234 125,241 123,248 114,257 112,264 112,386 117,398 127,403 158,403 162,409 154,420 153,428 155,434 162,440 185,444 211,441 227,431 236,433 278,432 283,437 296,442 312,444 330,443 343,439 351,428 367,432 387,432 407,427 419,420 432,405 437,390 435,372 429,365 424,363 414,363 405,370 401,391 393,400 384,404 373,404 384,404 394,400 401,391 405,371 414,363 424,363 436,375 437,390 432,404 418,420 404,428 387,432 367,432 351,428 342,439 330,443 312,444 296,442 287,439 279,432 236,433 227,431 214,440 188,444 168,442 161,439 153,428 154,420 162,410 159,403 127,403 119,399 114,393 112,386 112,264 114,258 122,250 125,242 132,234 144,228 155,227 147,210 126,215 121,214 125,210 144,206 145,200 143,190 121,189 119,187 126,184 143,185 145,164 152,144 150,122 151,87 155,69 163,59 173,60 183,65 220,95 238,91 271,91 291,94 311,75 327,64 339,59 345,59 350,63 354,72 358,94 356,145 362,163 364,184 380,184 386,187 385,189 364,190 362,206 378,209 384,214 382,216 368,211 360,211 353,226 366,228 375,233 394,260 395,387 391,396 386,400 372,402 387,400 393,394 395,387 395,264 393,257 386,250 383,241 376,233 353,225 361,211 384,215 384,212 381,210 363,206 362,200 366,189 386,189 386,186 380,184 366,185 364,183 362,163 356,145 358,94 350,62 345,59 339,59 326,64 310,75 290,94 271,91 238,91 220,95 184,65 169,59" stroke="#0A2A66" stroke-linecap="round" stroke-linejoin="round" stroke-width="1.5" /></svg>